HIERARCHY
ROOT Hips
{
	OFFSET 0.000000 121.760803 0.000000
	CHANNELS 6 Xposition Yposition Zposition Xrotation Yrotation Zrotation 
	JOINT Spine
	{
		OFFSET 0.072000 7.257294 -0.789700
		CHANNELS 3 Xrotation Yrotation Zrotation
		JOINT Spine1
		{
			OFFSET 0.000000 12.508769 -0.658067
			CHANNELS 3 Xrotation Yrotation Zrotation
			JOINT Spine1_split
			{
				OFFSET 0.000000 12.508769 -0.658067
				CHANNELS 3 Xrotation Yrotation Zrotation
				JOINT Spine2
				{
					OFFSET 0.000000 12.508769 -0.658067
					CHANNELS 3 Xrotation Yrotation Zrotation
					JOINT Neck
					{
						OFFSET 0.000000 14.033295 7.520400
						CHANNELS 3 Xrotation Yrotation Zrotation
						JOINT Head
						{
							OFFSET 0.000000 8.198502 5.703100
							CHANNELS 3 Xrotation Yrotation Zrotation
							JOINT HeadTop_End
							{
								OFFSET 0.000000 17.760803 13.332701
								CHANNELS 3 Xrotation Yrotation Zrotation
								End Site
								{
									OFFSET 0.000000 0.000000 0.000000
								}
							}
						}
					}
					JOINT LeftShoulder
					{
						OFFSET 6.292450 5.785301 -0.669000
						CHANNELS 3 Xrotation Yrotation Zrotation
						JOINT LeftShoulder_split
						{
							OFFSET 6.292450 5.785301 -0.669000
							CHANNELS 3 Xrotation Yrotation Zrotation
							JOINT LeftArm
							{
								OFFSET 13.907140 -6.093903 1.965100
								CHANNELS 3 Xrotation Yrotation Zrotation
								JOINT LeftForeArm
								{
									OFFSET 34.140198 0.000000 0.000000
									CHANNELS 3 Xrotation Yrotation Zrotation
									JOINT LeftHand
									{
										OFFSET 40.960209 0.000000 0.000000
										CHANNELS 3 Xrotation Yrotation Zrotation
										JOINT LeftHandThumb1
										{
											OFFSET 10.006996 -7.170425 9.573125
											CHANNELS 3 Xrotation Yrotation Zrotation
											JOINT LeftHandThumb2
											{
												OFFSET 1.835007 -1.059448 1.059443
												CHANNELS 3 Xrotation Yrotation Zrotation
												JOINT LeftHandThumb3
												{
													OFFSET 2.112267 -1.219513 1.219518
													CHANNELS 3 Xrotation Yrotation Zrotation
													JOINT LeftHandThumb4
													{
														OFFSET 4.843811 -2.796570 2.796576
														CHANNELS 3 Xrotation Yrotation Zrotation
														End Site
														{
															OFFSET 0.000000 0.000000 0.000000
														}
													}
												}
											}
										}
										JOINT LeftHandIndex1
										{
											OFFSET 18.389847 -0.922348 4.596882
											CHANNELS 3 Xrotation Yrotation Zrotation
											JOINT LeftHandIndex2
											{
												OFFSET 4.711273 0.000000 0.000000
												CHANNELS 3 Xrotation Yrotation Zrotation
												JOINT LeftHandIndex3
												{
													OFFSET 2.886131 0.000000 0.000000
													CHANNELS 3 Xrotation Yrotation Zrotation
													JOINT LeftHandIndex4
													{
														OFFSET 6.145912 0.000000 0.000000
														CHANNELS 3 Xrotation Yrotation Zrotation
														End Site
														{
															OFFSET 0.000000 0.000000 0.000000
														}
													}
												}
											}
										}
										JOINT LeftHandMiddle1
										{
											OFFSET 18.013008 0.000000 0.000000
											CHANNELS 3 Xrotation Yrotation Zrotation
											JOINT LeftHandMiddle2
											{
												OFFSET 4.946693 0.000000 0.000000
												CHANNELS 3 Xrotation Yrotation Zrotation
												JOINT LeftHandMiddle3
												{
													OFFSET 3.342232 0.000000 0.000000
													CHANNELS 3 Xrotation Yrotation Zrotation
													JOINT LeftHandMiddle4
													{
														OFFSET 4.461754 0.000000 0.000000
														CHANNELS 3 Xrotation Yrotation Zrotation
														End Site
														{
															OFFSET 0.000000 0.000000 0.000000
														}
													}
												}
											}
										}
										JOINT LeftHandRing1
										{
											OFFSET 15.849892 -0.102921 -4.126150
											CHANNELS 3 Xrotation Yrotation Zrotation
											JOINT LeftHandRing2
											{
												OFFSET 3.527054 0.000000 0.000000
												CHANNELS 3 Xrotation Yrotation Zrotation
												JOINT LeftHandRing3
												{
													OFFSET 2.961098 0.000000 0.000000
													CHANNELS 3 Xrotation Yrotation Zrotation
													JOINT LeftHandRing4
													{
														OFFSET 4.927200 0.000000 0.000000
														CHANNELS 3 Xrotation Yrotation Zrotation
														End Site
														{
															OFFSET 0.000000 0.000000 0.000000
														}
													}
												}
											}
										}
										JOINT LeftHandPinky1
										{
											OFFSET 12.791824 -0.832031 -6.799156
											CHANNELS 3 Xrotation Yrotation Zrotation
											JOINT LeftHandPinky2
											{
												OFFSET 3.327133 0.000000 0.000000
												CHANNELS 3 Xrotation Yrotation Zrotation
												JOINT LeftHandPinky3
												{
													OFFSET 3.014900 0.000000 0.000000
													CHANNELS 3 Xrotation Yrotation Zrotation
													JOINT LeftHandPinky4
													{
														OFFSET 5.847786 0.000000 0.000000
														CHANNELS 3 Xrotation Yrotation Zrotation
														End Site
														{
															OFFSET 0.000000 0.000000 0.000000
														}
													}
												}
											}
										}
									}
								}
							}
						}
					}
					JOINT RightShoulder
					{
						OFFSET -6.292450 5.785301 -0.669000
						CHANNELS 3 Xrotation Yrotation Zrotation
						JOINT RightShoulder_split
						{
							OFFSET -6.292450 5.785301 -0.669000
							CHANNELS 3 Xrotation Yrotation Zrotation
							JOINT RightArm
							{
								OFFSET -13.907140 -6.093903 1.965100
								CHANNELS 3 Xrotation Yrotation Zrotation
								JOINT RightForeArm
								{
									OFFSET -34.140198 0.000000 0.000000
									CHANNELS 3 Xrotation Yrotation Zrotation
									JOINT RightHand
									{
										OFFSET -40.960209 0.000000 0.000000
										CHANNELS 3 Xrotation Yrotation Zrotation
										JOINT RightHandThumb1
										{
											OFFSET -10.007050 -7.170456 9.573117
											CHANNELS 3 Xrotation Yrotation Zrotation
											JOINT RightHandThumb2
											{
												OFFSET -1.835007 -1.059448 1.059443
												CHANNELS 3 Xrotation Yrotation Zrotation
												JOINT RightHandThumb3
												{
													OFFSET -2.112267 -1.219513 1.219518
													CHANNELS 3 Xrotation Yrotation Zrotation
													JOINT RightHandThumb4
													{
														OFFSET -4.843834 -2.796585 2.796590
														CHANNELS 3 Xrotation Yrotation Zrotation
														End Site
														{
															OFFSET 0.000000 0.000000 0.000000
														}
													}
												}
											}
										}
										JOINT RightHandIndex1
										{
											OFFSET -18.389870 -0.922424 4.596786
											CHANNELS 3 Xrotation Yrotation Zrotation
											JOINT RightHandIndex2
											{
												OFFSET -4.711273 0.000000 0.000000
												CHANNELS 3 Xrotation Yrotation Zrotation
												JOINT RightHandIndex3
												{
													OFFSET -2.886131 0.000000 0.000000
													CHANNELS 3 Xrotation Yrotation Zrotation
													JOINT RightHandIndex4
													{
														OFFSET -6.145920 0.000000 0.000000
														CHANNELS 3 Xrotation Yrotation Zrotation
														End Site
														{
															OFFSET 0.000000 0.000000 0.000000
														}
													}
												}
											}
										}
										JOINT RightHandMiddle1
										{
											OFFSET -18.013008 0.000000 0.000000
											CHANNELS 3 Xrotation Yrotation Zrotation
											JOINT RightHandMiddle2
											{
												OFFSET -4.946693 0.000000 0.000000
												CHANNELS 3 Xrotation Yrotation Zrotation
												JOINT RightHandMiddle3
												{
													OFFSET -3.342232 0.000000 0.000000
													CHANNELS 3 Xrotation Yrotation Zrotation
													JOINT RightHandMiddle4
													{
														OFFSET -4.461754 0.000000 0.000000
														CHANNELS 3 Xrotation Yrotation Zrotation
														End Site
														{
															OFFSET 0.000000 0.000000 0.000000
														}
													}
												}
											}
										}
										JOINT RightHandRing1
										{
											OFFSET -15.849876 -0.102936 -4.126237
											CHANNELS 3 Xrotation Yrotation Zrotation
											JOINT RightHandRing2
											{
												OFFSET -3.527054 0.000000 0.000000
												CHANNELS 3 Xrotation Yrotation Zrotation
												JOINT RightHandRing3
												{
													OFFSET -2.961098 0.000000 0.000000
													CHANNELS 3 Xrotation Yrotation Zrotation
													JOINT RightHandRing4
													{
														OFFSET -4.927200 0.000000 0.000000
														CHANNELS 3 Xrotation Yrotation Zrotation
														End Site
														{
															OFFSET 0.000000 0.000000 0.000000
														}
													}
												}
											}
										}
										JOINT RightHandPinky1
										{
											OFFSET -12.791786 -0.832077 -6.799222
											CHANNELS 3 Xrotation Yrotation Zrotation
											JOINT RightHandPinky2
											{
												OFFSET -3.327133 0.000000 0.000000
												CHANNELS 3 Xrotation Yrotation Zrotation
												JOINT RightHandPinky3
												{
													OFFSET -3.014900 0.000000 0.000000
													CHANNELS 3 Xrotation Yrotation Zrotation
													JOINT RightHandPinky4
													{
														OFFSET -5.847786 0.000000 0.000000
														CHANNELS 3 Xrotation Yrotation Zrotation
														End Site
														{
															OFFSET 0.000000 0.000000 0.000000
														}
													}
												}
											}
										}
									}
								}
							}
						}
					}
				}
			}
		}
	}
	JOINT LeftUpLeg
	{
		OFFSET 13.026900 -6.336304 -1.092800
		CHANNELS 3 Xrotation Yrotation Zrotation
		JOINT LeftLeg
		{
			OFFSET 0.524474 -46.096886 9.782700
			CHANNELS 3 Xrotation Yrotation Zrotation
			JOINT LeftFoot
			{
				OFFSET -0.524474 -53.427422 -12.948200
				CHANNELS 3 Xrotation Yrotation Zrotation
				JOINT LeftToeBase
				{
					OFFSET 0.192200 -14.009700 16.364100
					CHANNELS 3 Xrotation Yrotation Zrotation
					JOINT LeftToe_End
					{
						OFFSET -1.784700 -0.561700 9.474800
						CHANNELS 3 Xrotation Yrotation Zrotation
						End Site
						{
							OFFSET 0.000000 0.000000 0.000000
						}
					}
				}
			}
		}
	}
	JOINT RightUpLeg
	{
		OFFSET -12.883000 -6.336304 -1.092800
		CHANNELS 3 Xrotation Yrotation Zrotation
		JOINT RightLeg
		{
			OFFSET -0.524587 -46.096825 9.782800
			CHANNELS 3 Xrotation Yrotation Zrotation
			JOINT RightFoot
			{
				OFFSET 0.524587 -53.427383 -12.948300
				CHANNELS 3 Xrotation Yrotation Zrotation
				JOINT RightToeBase
				{
					OFFSET -0.192200 -14.009700 16.364100
					CHANNELS 3 Xrotation Yrotation Zrotation
					JOINT RightToe_End
					{
						OFFSET 1.784700 -0.561700 9.474800
						CHANNELS 3 Xrotation Yrotation Zrotation
						End Site
						{
							OFFSET 0.000000 0.000000 0.000000
						}
					}
				}
			}
		}
	}
}
MOTION
Frames: 5
Frame Time: 0.016667
-129.276657 92.956200 -8.559046 5.514122 -58.060044 5.077070 16.004643 0.586113 -6.500342 15.662365 2.194510 -5.768870 0.000000 0.000000 0.000000 15.861040 2.321205 -5.742674 -14.884355 23.425665 6.721282 -15.964684 21.324455 2.083151 -0.000000 -0.000001 -0.000001 -0.592730 -13.563743 6.823826 0.000000 0.000000 0.000000 -37.598409 23.788784 -23.345662 0.137210 -73.842432 0.102649 21.507019 -12.727071 33.551822 -0.176228 -1.991286 10.659559 -0.979203 11.076301 -5.731060 -1.819318 -7.916927 -2.018626 -0.000000 -0.000002 -0.000000 13.247452 -0.979860 21.207956 -0.180150 0.297639 -20.577338 -0.128606 0.309425 -21.728077 0.000000 0.000001 -0.000000 8.602428 -0.416353 9.612756 0.200397 0.617469 -19.373463 0.419221 0.140632 -33.828892 0.000001 -0.000001 -0.000000 6.158753 3.074133 -5.684670 0.025725 0.262736 -19.597368 0.393963 0.759826 -31.612240 0.000001 0.000001 0.000001 -5.613875 7.660090 -3.352573 0.187027 0.237975 -36.060185 0.214707 0.218628 -35.758591 -0.000000 0.000001 -0.000002 -2.118358 13.247528 13.753730 0.000000 0.000000 0.000000 -38.399064 -0.958076 39.774186 151.512488 110.498117 -153.014324 -21.986348 0.700022 -2.641034 1.093333 1.408788 -13.987316 3.986624 -25.048821 0.080539 4.270662 -21.254166 -11.788149 0.000002 0.000001 0.000001 19.464644 11.168273 -4.447426 -0.110041 -0.329377 26.935961 -0.071894 -0.279463 32.156927 0.000000 0.000002 -0.000001 4.244748 2.329702 4.090255 0.378205 -0.490159 35.790649 0.497416 0.132908 47.944796 -0.000003 -0.000000 0.000000 -7.005499 -10.749417 14.617047 0.115636 -0.151332 35.055997 0.483010 -0.512601 42.165404 0.000002 -0.000002 0.000000 -19.412762 -20.240277 14.888265 0.269417 -0.116262 45.744830 0.295693 -0.072196 45.371915 -0.000000 -0.000001 0.000004 -47.505796 -24.134682 18.554351 42.900869 -4.397553 -9.522614 2.513708 0.746790 -21.479251 -0.292266 -0.845470 0.828108 -0.000000 -0.000002 -0.000000 -51.973922 0.660249 -13.095505 82.397940 6.285340 -7.307119 -13.406294 -4.356799 13.106338 9.043954 1.778766 -0.430506 -0.000001 -0.000001 0.000000 
-131.068359 93.095757 -8.265444 4.051157 -58.395153 3.695902 15.926982 0.464679 -6.349389 15.476328 1.900083 -5.988026 0.000000 0.000000 0.000000 15.663097 2.020920 -5.953950 -15.640624 24.355947 6.043407 -15.299791 22.041526 1.948359 0.000001 0.000000 -0.000000 -1.370440 -14.343336 3.032922 0.000000 0.000000 0.000000 -38.279607 22.614256 -23.089905 0.142128 -75.187822 0.107991 21.180299 -12.561881 30.726350 -0.172644 -1.962152 10.669722 -0.991717 11.049026 -5.744196 -1.829330 -7.945218 -2.034910 -0.000001 -0.000001 -0.000000 13.246167 -0.979987 21.241415 -0.180224 0.297653 -20.543865 -0.128572 0.309590 -21.694564 -0.000000 -0.000004 -0.000001 8.603001 -0.416584 9.646228 0.200002 0.617147 -19.339956 0.418469 0.140937 -33.795383 0.000000 0.000001 0.000001 6.160623 3.072688 -5.651287 0.025775 0.262517 -19.563876 0.393195 0.760108 -31.578761 0.000003 0.000000 0.000002 -5.609814 7.658647 -3.319397 0.186949 0.238063 -36.026707 0.214585 0.218495 -35.725120 0.000000 0.000002 0.000002 -2.145708 13.116400 13.287858 0.000000 0.000000 0.000000 -38.908514 -2.796925 41.271138 150.551494 108.832699 -151.840884 -18.983467 0.814733 -0.184491 1.100670 1.315997 -14.020256 4.097930 -25.391044 -0.046758 4.301345 -21.611222 -11.948327 0.000000 -0.000003 0.000001 19.480316 11.186130 -4.051258 -0.109615 -0.329628 27.333167 -0.071241 -0.279282 32.554095 0.000000 0.000002 -0.000000 4.235012 2.325059 4.487355 0.380041 -0.491323 36.187811 0.499207 0.132020 48.341907 0.000001 -0.000001 0.000002 -7.026291 -10.770437 15.013181 0.116060 -0.154265 35.453173 0.483599 -0.513355 42.562495 -0.000000 0.000001 -0.000002 -19.446527 -20.272553 15.280820 0.270966 -0.117528 46.141941 0.297349 -0.073145 45.769063 0.000002 -0.000001 -0.000000 -45.648938 -23.772714 19.644532 43.495727 -5.198230 -9.799776 0.916031 1.030932 -21.381448 -0.299120 -0.827579 0.814880 0.000000 0.000002 -0.000000 -51.225947 1.553890 -14.147873 78.958073 3.690212 -7.403510 -15.960728 -5.934961 11.488315 14.738377 4.749811 4.728163 0.000000 -0.000002 0.000001 
-132.740524 93.365150 -7.956176 2.633656 -58.633486 2.366985 15.844934 0.366699 -6.140659 15.281064 1.631118 -6.174519 0.000000 0.000000 0.000000 15.452424 1.743116 -6.133691 -16.471742 25.128998 5.368868 -14.460296 22.658890 1.648733 0.000001 0.000000 0.000001 -2.134510 -14.889206 -0.321575 0.000000 0.000000 0.000000 -38.090841 21.313453 -23.421106 0.143855 -75.859660 0.109885 21.642675 -12.429999 28.334589 -0.171285 -1.951969 10.673347 -0.995515 11.040127 -5.747499 -1.832635 -7.954338 -2.039775 0.000000 0.000002 0.000001 13.244945 -0.980203 21.252183 -0.180229 0.297737 -20.533239 -0.128598 0.309842 -21.683861 -0.000000 0.000001 -0.000000 8.603638 -0.416726 9.656904 0.199605 0.616970 -19.329314 0.417770 0.141420 -33.784715 -0.000001 -0.000001 0.000004 6.162580 3.070924 -5.640796 0.025945 0.262503 -19.553196 0.392214 0.760635 -31.568110 0.000000 -0.000001 0.000000 -5.608277 7.656856 -3.309147 0.186887 0.238186 -36.015984 0.214534 0.218481 -35.714431 -0.000000 -0.000002 0.000001 -2.213424 12.977063 12.820903 0.000000 0.000000 0.000000 -38.520307 -3.822270 41.682298 149.720315 107.278073 -150.818391 -17.231141 2.319441 1.639093 1.099612 1.332542 -14.014479 4.156985 -25.569863 -0.112261 4.317119 -21.797719 -12.032352 -0.000002 -0.000001 0.000005 19.490556 11.198357 -3.844282 -0.109428 -0.329753 27.540762 -0.070977 -0.279267 32.761723 -0.000000 -0.000003 0.000001 4.228749 2.322543 4.694890 0.381004 -0.491844 36.395387 0.499958 0.131544 48.549476 -0.000001 -0.000001 -0.000002 -7.040170 -10.784486 15.220090 0.116256 -0.155921 35.660807 0.484314 -0.513769 42.770023 0.000003 0.000002 -0.000004 -19.469258 -20.294741 15.485350 0.271743 -0.118154 46.349544 0.298128 -0.073681 45.976650 -0.000000 -0.000000 -0.000001 -43.804780 -23.160979 20.646641 43.740197 -6.019390 -10.011514 -0.441747 1.249307 -21.160305 -0.304866 -0.800817 0.804419 0.000000 0.000003 -0.000000 -50.081850 2.034201 -15.170941 74.769753 1.511386 -7.615896 -17.281043 -7.042077 11.337276 17.704141 6.559209 10.157955 -0.000002 -0.000001 -0.000000 
-134.290451 93.643318 -7.587106 1.287174 -58.800026 1.066914 15.758211 0.311552 -5.842330 15.077526 1.383981 -6.329466 0.000000 0.000000 0.000000 15.230632 1.483831 -6.284088 -17.484618 25.776258 4.725523 -13.493817 23.182096 1.276609 -0.000001 0.000000 0.000001 -2.761762 -14.973153 -2.599933 0.000000 0.000000 0.000000 -36.570636 20.101429 -24.497419 0.136218 -75.533587 0.102056 22.628483 -12.613174 26.528093 -0.175614 -1.983305 10.662198 -0.950358 11.151376 -5.698983 -1.794627 -7.840057 -1.978392 0.000001 -0.000002 -0.000000 13.243765 -0.980687 21.119411 -0.180064 0.297937 -20.665907 -0.128249 0.310101 -21.816618 0.000000 -0.000003 -0.000002 8.602295 -0.415818 9.524136 0.199710 0.617412 -19.462043 0.417675 0.142342 -33.917500 0.000000 0.000002 0.000001 6.163234 3.070130 -5.773605 0.026176 0.263578 -19.685920 0.392115 0.761508 -31.700878 -0.000001 0.000001 -0.000000 -5.603431 7.655377 -3.442082 0.187318 0.238818 -36.148749 0.215091 0.218876 -35.847189 0.000000 -0.000001 -0.000000 -2.248348 12.848361 12.353133 0.000000 0.000000 0.000000 -38.156261 -4.801582 41.733228 148.594290 105.662637 -149.509508 -15.782207 4.369585 3.355031 1.092531 1.427160 -13.981083 4.180284 -25.639287 -0.137686 4.324368 -21.870163 -12.064789 0.000000 -0.000001 0.000004 19.497122 11.206780 -3.763935 -0.109352 -0.329815 27.621563 -0.070898 -0.279381 32.842463 -0.000000 0.000005 -0.000002 4.225245 2.321634 4.775582 0.381435 -0.492057 36.476140 0.500118 0.131368 48.630278 0.000000 0.000001 0.000002 -7.049307 -10.793704 15.300474 0.116312 -0.156696 35.741540 0.484746 -0.513852 42.850865 -0.000001 0.000001 -0.000002 -19.484416 -20.310013 15.564196 0.272081 -0.118433 46.430304 0.298329 -0.073891 46.057393 -0.000002 -0.000003 0.000003 -42.142677 -22.395914 21.583290 43.915606 -6.932800 -10.215052 -1.674240 1.434233 -20.796427 -0.309933 -0.769590 0.796042 -0.000000 0.000002 0.000000 -48.305724 1.856822 -16.077212 69.293020 1.004865 -7.852756 -15.677524 -6.609760 13.560997 15.199018 4.665222 7.915623 -0.000002 0.000002 -0.000000 
-135.714951 93.766327 -7.139153 0.032942 -58.918899 -0.211678 15.666673 0.312630 -5.441288 14.866516 1.154953 -6.453888 0.000000 0.000000 0.000000 14.999276 1.239175 -6.407297 -18.318069 26.279409 4.124374 -12.457444 23.628614 0.923195 0.000002 -0.000000 0.000000 -3.369792 -14.971797 -4.713502 0.000000 0.000000 0.000000 -34.656516 18.672687 -25.510705 0.075641 -74.779138 0.043014 23.560724 -12.862604 24.796983 -0.186351 -2.074040 10.630871 -0.821886 11.469850 -5.559778 -1.686514 -7.513021 -1.803001 0.000000 -0.000003 -0.000002 13.242569 -0.981866 20.739695 -0.179666 0.298323 -21.045869 -0.127070 0.310339 -22.196559 0.000001 0.000001 -0.000002 8.597219 -0.413223 9.144236 0.200844 0.618846 -19.841968 0.418739 0.144113 -34.297399 0.000001 0.000001 0.000002 6.163655 3.071004 -6.153373 0.026291 0.266213 -20.065839 0.393946 0.762831 -32.080787 0.000000 0.000001 -0.000002 -5.590150 7.651172 -3.822587 0.188557 0.240341 -36.528709 0.216678 0.220151 -36.227125 0.000001 0.000001 -0.000001 -2.345961 12.708591 11.887829 0.000000 0.000000 0.000000 -38.023199 -6.050302 41.672972 146.574698 103.838997 -147.305542 -14.418645 6.388294 5.139718 1.079779 1.593660 -13.922121 4.170484 -25.607745 -0.126330 4.321864 -21.837172 -12.050728 -0.000001 -0.000002 0.000002 19.499367 11.211523 -3.800234 -0.109396 -0.329801 27.585235 -0.071004 -0.279611 32.806198 0.000000 -0.000001 0.000001 4.224078 2.322023 4.739248 0.381337 -0.491969 36.439899 0.499769 0.131441 48.594002 -0.000000 0.000001 -0.000004 -7.054220 -10.798430 15.264040 0.116317 -0.156658 35.705244 0.484586 -0.513669 42.814549 0.000002 -0.000000 -0.000001 -19.492796 -20.318676 15.526975 0.271956 -0.118280 46.394026 0.297974 -0.073781 46.021145 -0.000004 -0.000001 -0.000000 -40.943139 -21.609995 22.476368 44.379574 -8.219293 -10.505429 -2.776659 1.595061 -20.150786 -0.116660 -0.733926 0.363897 0.000000 0.000002 0.000000 -46.195759 1.262068 -16.960381 62.945077 1.503701 -8.033836 -12.883336 -5.241849 16.949067 9.674327 1.196824 3.209822 0.000001 0.000001 -0.000000 
